<svg xmlns="http://www.w3.org/2000/svg" version="1.1" xmlns:xlink="http://www.w3.org/1999/xlink" xmlns:svgjs="http://svgjs.com/svgjs" width="512" height="512" x="0" y="0" viewBox="0 0 512 512" style="enable-background:new 0 0 512 512" xml:space="preserve" class=""><g><g xmlns="http://www.w3.org/2000/svg"><path d="m492 392c-11.046 0-20 8.954-20 20v40c0 11.028-8.972 20-20 20h-40c-11.046 0-20 8.954-20 20s8.954 20 20 20h40c33.084 0 60-26.916 60-60v-40c0-11.046-8.954-20-20-20z" fill="#000000" data-original="#000000" class=""></path><path d="m100 472h-40c-11.028 0-20-8.972-20-20v-40c0-11.046-8.954-20-20-20s-20 8.954-20 20v40c0 33.084 26.916 60 60 60h40c11.046 0 20-8.954 20-20s-8.954-20-20-20z" fill="#000000" data-original="#000000" class=""></path><path d="m20 120c11.046 0 20-8.954 20-20v-40c0-11.028 8.972-20 20-20h40c11.046 0 20-8.954 20-20s-8.954-20-20-20h-40c-33.084 0-60 26.916-60 60v40c0 11.046 8.954 20 20 20z" fill="#000000" data-original="#000000" class=""></path><path d="m452 0h-40c-11.046 0-20 8.954-20 20s8.954 20 20 20h40c11.028 0 20 8.972 20 20v40c0 11.046 8.954 20 20 20s20-8.954 20-20v-40c0-33.084-26.916-60-60-60z" fill="#000000" data-original="#000000" class=""></path><path d="m76 96v40c0 11.046 8.954 20 20 20s20-8.954 20-20v-20h40v120h-20c-11.046 0-20 8.954-20 20s8.954 20 20 20h80c11.046 0 20-8.954 20-20s-8.954-20-20-20h-20v-120h40v20c0 11.046 8.954 20 20 20s20-8.954 20-20v-40c0-11.046-8.954-20-20-20h-160c-11.046 0-20 8.954-20 20z" fill="#000000" data-original="#000000" class=""></path><path d="m416 316h-320c-11.046 0-20 8.954-20 20s8.954 20 20 20h320c11.046 0 20-8.954 20-20s-8.954-20-20-20z" fill="#000000" data-original="#000000" class=""></path><path d="m416 396h-320c-11.046 0-20 8.954-20 20s8.954 20 20 20h320c11.046 0 20-8.954 20-20s-8.954-20-20-20z" fill="#000000" data-original="#000000" class=""></path><path d="m336 276h80c11.046 0 20-8.954 20-20s-8.954-20-20-20h-80c-11.046 0-20 8.954-20 20s8.954 20 20 20z" fill="#000000" data-original="#000000" class=""></path><path d="m336 196h80c11.046 0 20-8.954 20-20s-8.954-20-20-20h-80c-11.046 0-20 8.954-20 20s8.954 20 20 20z" fill="#000000" data-original="#000000" class=""></path><path d="m336 116h80c11.046 0 20-8.954 20-20s-8.954-20-20-20h-80c-11.046 0-20 8.954-20 20s8.954 20 20 20z" fill="#000000" data-original="#000000" class=""></path></g></g></svg>