<svg width="20" height="20" viewBox="0 0 20 20" fill="none" xmlns="http://www.w3.org/2000/svg">
<g clip-path="url(#clip0_7_329)">
<path d="M10.3272 15.3466L7.48361 18.1902C6.72681 18.947 5.72059 19.3637 4.65032 19.3637C3.58004 19.3637 2.57378 18.947 1.81702 18.1902C0.254724 16.6279 0.254724 14.0859 1.81702 12.5236L7.17031 7.17028C7.92711 6.41347 8.93333 5.9967 10.0036 5.9967C11.0739 5.9967 12.0801 6.41347 12.8369 7.17028C13.2784 7.61178 13.6108 8.15121 13.8061 8.73917L11.2726 11.2727C10.9318 11.6135 10.4785 11.8013 9.99646 11.8013C9.51439 11.8013 9.0611 11.6135 8.72022 11.2727C8.54827 11.1007 8.41518 10.9001 8.3246 10.6763C8.25846 10.5129 8.07238 10.434 7.90894 10.5002C7.7455 10.5663 7.66667 10.7525 7.73281 10.9159C7.85569 11.2194 8.03603 11.4913 8.2688 11.7241C8.73031 12.1855 9.34389 12.4397 9.9965 12.4397C10.6491 12.4397 11.2627 12.1855 11.7241 11.7241L17.0774 6.37083C17.5389 5.90936 17.793 5.29578 17.793 4.64317C17.793 3.99056 17.5389 3.37698 17.0774 2.91552C16.6159 2.45406 16.0024 2.19992 15.3497 2.19992C14.6971 2.19992 14.0835 2.45406 13.6221 2.91552L11.9318 4.6058C11.8071 4.73047 11.8071 4.9326 11.9318 5.05722C12.0564 5.18189 12.2586 5.18189 12.3832 5.05722L14.0735 3.36694C14.4144 3.02606 14.8676 2.83831 15.3497 2.83831C15.8317 2.83831 16.285 3.02606 16.6259 3.3669C16.9667 3.70782 17.1545 4.16103 17.1545 4.64313C17.1545 5.12524 16.9667 5.57844 16.6259 5.91937L14.3024 8.24281C14.0698 7.6757 13.7251 7.15576 13.2882 6.71886C11.477 4.90761 8.52997 4.90761 6.71877 6.71886L1.3656 12.0721C-0.445598 13.8833 -0.445598 16.8304 1.3656 18.6416C2.2712 19.5472 3.46078 20 4.65032 20C5.83989 20 7.02947 19.5473 7.93507 18.6416L10.7787 15.798C10.9033 15.6734 10.9033 15.4712 10.7787 15.3466C10.654 15.2219 10.4519 15.2219 10.3272 15.3466V15.3466Z" fill="black"/>
<path d="M18.6345 1.35842C16.8233 -0.452827 13.8762 -0.452784 12.065 1.35842L9.21787 4.20559C9.09321 4.33025 9.09321 4.53238 9.21787 4.657C9.34254 4.78167 9.54466 4.78167 9.66929 4.657L12.5165 1.80983C14.0788 0.247538 16.6208 0.247538 18.183 1.80983C19.7453 3.37213 19.7453 5.91413 18.183 7.47642L12.8298 12.8297C12.073 13.5865 11.0667 14.0033 9.99647 14.0033C8.92619 14.0033 7.91997 13.5865 7.16317 12.8297C6.72158 12.3881 6.38934 11.8488 6.19394 11.2608L8.72738 8.72738C9.06826 8.38649 9.52151 8.19875 10.0036 8.19875C10.4856 8.19875 10.9389 8.38649 11.2798 8.72738C11.4518 8.89933 11.5849 9.09993 11.6755 9.32368C11.7416 9.48712 11.9278 9.5659 12.0911 9.4998C12.2546 9.43366 12.3334 9.24753 12.2673 9.08413C12.1444 8.78062 11.964 8.50869 11.7312 8.27592C11.2697 7.81446 10.6562 7.56032 10.0036 7.56032C9.35096 7.56032 8.73738 7.81446 8.27592 8.27592L5.66642 10.8854C5.61947 10.9132 5.58121 10.9519 5.55431 10.9975L2.92268 13.6292C2.46117 14.0906 2.20703 14.7042 2.20703 15.3568C2.20703 16.0094 2.46117 16.623 2.92268 17.0845C3.38414 17.5459 3.99768 17.8001 4.65028 17.8001C5.30289 17.8001 5.91647 17.5459 6.37794 17.0845L8.06575 15.3967C8.19041 15.272 8.19041 15.0699 8.06575 14.9452C7.94108 14.8206 7.73895 14.8206 7.61433 14.9452L5.92652 16.633C5.58564 16.9739 5.13239 17.1617 4.65028 17.1617C4.16818 17.1617 3.71498 16.9739 3.37409 16.6331C3.03321 16.2922 2.84547 15.839 2.84547 15.3569C2.84547 14.8748 3.03321 14.4215 3.37409 14.0806L5.69749 11.7572C5.93014 12.3243 6.27468 12.8441 6.71167 13.2812C7.58905 14.1586 8.7556 14.6418 9.99638 14.6418C11.2372 14.6418 12.4038 14.1586 13.2811 13.2812L18.6344 7.92788C20.4457 6.11664 20.4457 3.16962 18.6345 1.35842V1.35842Z" fill="black"/>
</g>
<defs>
<clipPath id="clip0_7_329">
<rect width="20" height="20" fill="white"/>
</clipPath>
</defs>
</svg>
