<svg xmlns="http://www.w3.org/2000/svg" version="1.1" xmlns:xlink="http://www.w3.org/1999/xlink" xmlns:svgjs="http://svgjs.com/svgjs" width="512" height="512" x="0" y="0" viewBox="0 0 24 24" style="enable-background:new 0 0 512 512" xml:space="preserve" class=""><g><g xmlns="http://www.w3.org/2000/svg" clip-rule="evenodd" fill="rgb(0,0,0)" fill-rule="evenodd"><path d="m8 20c0-.5523.44772-1 1-1h6c.5523 0 1 .4477 1 1s-.4477 1-1 1h-6c-.55228 0-1-.4477-1-1z" fill="#000000" data-original="#000000" class=""></path><path d="m3 4c0-.55228.44772-1 1-1h16c.5523 0 1 .44772 1 1v3c0 .55228-.4477 1-1 1s-1-.44772-1-1v-2h-14v2c0 .55228-.44772 1-1 1s-1-.44772-1-1z" fill="#000000" data-original="#000000" class=""></path><path d="m12 3c.5523 0 1 .44772 1 1v16c0 .5523-.4477 1-1 1s-1-.4477-1-1v-16c0-.55228.4477-1 1-1z" fill="#000000" data-original="#000000" class=""></path></g></g></svg>