<svg xmlns="http://www.w3.org/2000/svg" width="129" height="55" viewBox="0 0 129 55" fill="none">
<path d="M18 30.537C17.8592 31.9084 17.1836 32.8285 14.8002 32.8892C12.5951 32.95 11.835 34.0244 12.9235 36.0207C13.2707 36.6457 13.768 37.2359 14.3217 37.7306C15.4195 38.7028 17.1649 40.4127 16.9397 42.0184C16.63 44.2578 13.7305 45.1865 11.6943 45.6379C9.31086 46.1586 6.74917 46.0892 4.41267 45.6118C2.95823 45.3167 1.53193 44.6918 0.715567 43.4853C0.133789 42.626 0.143174 41.6105 0.490364 40.6817C0.997074 39.3364 2.01049 38.4077 2.99576 37.3661C4.98507 35.2743 4.84432 33.7206 2.60166 31.9153C2.08556 31.4986 1.61638 31.0386 1.14721 30.5786C0.7531 30.188 0.377763 29.997 0.190092 29.4502C0.00242192 28.9121 -0.00696588 28.3305 0.00241763 27.775C0.0305682 25.2926 -0.0163474 22.7842 0.246391 20.3018C0.34961 19.321 0.499748 18.3576 0.724952 17.3941C1.05338 15.9967 1.39118 14.6079 1.82282 13.2452C2.75179 10.3462 4.24377 7.6121 6.22369 5.20782C7.22773 3.98398 8.25992 2.7341 9.57361 1.7967C10.3618 1.23252 11.3002 0.364547 13.2895 0C11.3283 4.64364 10.2211 6.1144 10.4744 11.1052C10.6902 15.4277 11.4972 16.4346 16.0295 17.0942C17.5496 17.3199 17.9437 18.1271 17.9531 19.3336L18 30.537Z" fill="white"/>
<path d="M38.918 16.6V32H35.002V23.706L31.262 29.888H30.866L27.148 23.728V32H23.21V16.6H27.148L31.064 23.178L35.002 16.6H38.918ZM54.5643 30.02C53.0096 31.56 51.103 32.33 48.8443 32.33C46.5856 32.33 44.6716 31.56 43.1023 30.02C41.5476 28.4653 40.7703 26.5587 40.7703 24.3C40.7703 22.0413 41.5476 20.142 43.1023 18.602C44.6716 17.0473 46.5856 16.27 48.8443 16.27C51.103 16.27 53.0096 17.0473 54.5643 18.602C56.1336 20.142 56.9183 22.0413 56.9183 24.3C56.9183 26.5587 56.1336 28.4653 54.5643 30.02ZM45.8743 27.314C46.6663 28.0913 47.6563 28.48 48.8443 28.48C50.0323 28.48 51.0223 28.0913 51.8143 27.314C52.6063 26.522 53.0023 25.5173 53.0023 24.3C53.0023 23.0827 52.6063 22.0853 51.8143 21.308C51.0223 20.516 50.0323 20.12 48.8443 20.12C47.6563 20.12 46.6663 20.516 45.8743 21.308C45.0823 22.0853 44.6863 23.0827 44.6863 24.3C44.6863 25.5173 45.0823 26.522 45.8743 27.314ZM62.6832 28.194H67.9852V32H58.7452V16.6H62.6832V28.194ZM81.8495 30.02C80.2948 31.56 78.3881 32.33 76.1295 32.33C73.8708 32.33 71.9568 31.56 70.3875 30.02C68.8328 28.4653 68.0555 26.5587 68.0555 24.3C68.0555 22.0413 68.8328 20.142 70.3875 18.602C71.9568 17.0473 73.8708 16.27 76.1295 16.27C78.3881 16.27 80.2948 17.0473 81.8495 18.602C83.4188 20.142 84.2035 22.0413 84.2035 24.3C84.2035 26.5587 83.4188 28.4653 81.8495 30.02ZM73.1595 27.314C73.9515 28.0913 74.9415 28.48 76.1295 28.48C77.3175 28.48 78.3075 28.0913 79.0995 27.314C79.8915 26.522 80.2875 25.5173 80.2875 24.3C80.2875 23.0827 79.8915 22.0853 79.0995 21.308C78.3075 20.516 77.3175 20.12 76.1295 20.12C74.9415 20.12 73.9515 20.516 73.1595 21.308C72.3675 22.0853 71.9715 23.0827 71.9715 24.3C71.9715 25.5173 72.3675 26.522 73.1595 27.314ZM95.8169 16.6V20.406H92.0109V32H88.0729V20.406H84.2669V16.6H95.8169ZM109.672 30.02C108.117 31.56 106.21 32.33 103.952 32.33C101.693 32.33 99.7791 31.56 98.2097 30.02C96.6551 28.4653 95.8777 26.5587 95.8777 24.3C95.8777 22.0413 96.6551 20.142 98.2097 18.602C99.7791 17.0473 101.693 16.27 103.952 16.27C106.21 16.27 108.117 17.0473 109.672 18.602C111.241 20.142 112.026 22.0413 112.026 24.3C112.026 26.5587 111.241 28.4653 109.672 30.02ZM100.982 27.314C101.774 28.0913 102.764 28.48 103.952 28.48C105.14 28.48 106.13 28.0913 106.922 27.314C107.714 26.522 108.11 25.5173 108.11 24.3C108.11 23.0827 107.714 22.0853 106.922 21.308C106.13 20.516 105.14 20.12 103.952 20.12C102.764 20.12 101.774 20.516 100.982 21.308C100.19 22.0853 99.7937 23.0827 99.7937 24.3C99.7937 25.5173 100.19 26.522 100.982 27.314ZM126.613 32H122.213L117.791 25.114V32H113.853V16.6H117.791V23.068L121.993 16.6H126.393L121.509 24.08L126.613 32Z" fill="white"/>
<path d="M73.9432 48.784C73.6432 49.084 73.2832 49.234 72.8632 49.234C72.4432 49.234 72.0832 49.084 71.7832 48.784C71.4832 48.484 71.3332 48.124 71.3332 47.704C71.3332 47.284 71.4832 46.924 71.7832 46.624C72.0832 46.324 72.4432 46.174 72.8632 46.174C73.2832 46.174 73.6432 46.324 73.9432 46.624C74.2432 46.924 74.3932 47.284 74.3932 47.704C74.3932 48.124 74.2432 48.484 73.9432 48.784ZM78.4716 42.556C78.4716 42.796 78.6276 42.994 78.9396 43.15C79.2636 43.294 79.6536 43.426 80.1096 43.546C80.5656 43.654 81.0216 43.798 81.4776 43.978C81.9336 44.146 82.3176 44.434 82.6296 44.842C82.9536 45.25 83.1156 45.76 83.1156 46.372C83.1156 47.296 82.7676 48.01 82.0716 48.514C81.3876 49.006 80.5296 49.252 79.4976 49.252C77.6496 49.252 76.3896 48.538 75.7176 47.11L77.7336 45.976C77.9976 46.756 78.5856 47.146 79.4976 47.146C80.3256 47.146 80.7396 46.888 80.7396 46.372C80.7396 46.132 80.5776 45.94 80.2536 45.796C79.9416 45.64 79.5576 45.502 79.1016 45.382C78.6456 45.262 78.1896 45.112 77.7336 44.932C77.2776 44.752 76.8876 44.47 76.5636 44.086C76.2516 43.69 76.0956 43.198 76.0956 42.61C76.0956 41.722 76.4196 41.026 77.0676 40.522C77.7276 40.006 78.5436 39.748 79.5156 39.748C80.2476 39.748 80.9136 39.916 81.5136 40.252C82.1136 40.576 82.5876 41.044 82.9356 41.656L80.9556 42.736C80.6676 42.124 80.1876 41.818 79.5156 41.818C79.2156 41.818 78.9636 41.884 78.7596 42.016C78.5676 42.148 78.4716 42.328 78.4716 42.556ZM89.4932 42.232H87.4592V45.976C87.4592 46.288 87.5372 46.516 87.6932 46.66C87.8492 46.804 88.0772 46.888 88.3772 46.912C88.6772 46.924 89.0492 46.918 89.4932 46.894V49C87.8972 49.18 86.7692 49.03 86.1092 48.55C85.4612 48.07 85.1372 47.212 85.1372 45.976V42.232H83.5712V40H85.1372V38.182L87.4592 37.48V40H89.4932V42.232ZM97.211 40H99.533V49H97.211V47.992C96.647 48.832 95.753 49.252 94.529 49.252C93.545 49.252 92.729 48.922 92.081 48.262C91.445 47.602 91.127 46.69 91.127 45.526V40H93.449V45.238C93.449 45.838 93.611 46.3 93.935 46.624C94.259 46.936 94.691 47.092 95.231 47.092C95.831 47.092 96.311 46.906 96.671 46.534C97.031 46.162 97.211 45.604 97.211 44.86V40ZM108.482 36.4H110.804V49H108.482V47.938C107.798 48.814 106.826 49.252 105.566 49.252C104.354 49.252 103.316 48.796 102.452 47.884C101.6 46.96 101.174 45.832 101.174 44.5C101.174 43.168 101.6 42.046 102.452 41.134C103.316 40.21 104.354 39.748 105.566 39.748C106.826 39.748 107.798 40.186 108.482 41.062V36.4ZM104.198 46.336C104.678 46.804 105.278 47.038 105.998 47.038C106.718 47.038 107.312 46.804 107.78 46.336C108.248 45.856 108.482 45.244 108.482 44.5C108.482 43.756 108.248 43.15 107.78 42.682C107.312 42.202 106.718 41.962 105.998 41.962C105.278 41.962 104.678 42.202 104.198 42.682C103.73 43.15 103.496 43.756 103.496 44.5C103.496 45.244 103.73 45.856 104.198 46.336ZM114.079 38.92C113.695 38.92 113.359 38.782 113.071 38.506C112.795 38.218 112.657 37.882 112.657 37.498C112.657 37.114 112.795 36.778 113.071 36.49C113.359 36.202 113.695 36.058 114.079 36.058C114.475 36.058 114.811 36.202 115.087 36.49C115.375 36.778 115.519 37.114 115.519 37.498C115.519 37.882 115.375 38.218 115.087 38.506C114.811 38.782 114.475 38.92 114.079 38.92ZM112.927 49V40H115.249V49H112.927ZM125.043 47.884C124.119 48.796 122.991 49.252 121.659 49.252C120.327 49.252 119.199 48.796 118.275 47.884C117.363 46.96 116.906 45.832 116.906 44.5C116.906 43.168 117.363 42.046 118.275 41.134C119.199 40.21 120.327 39.748 121.659 39.748C122.991 39.748 124.119 40.21 125.043 41.134C125.967 42.046 126.429 43.168 126.429 44.5C126.429 45.832 125.967 46.96 125.043 47.884ZM119.913 46.282C120.381 46.75 120.963 46.984 121.659 46.984C122.355 46.984 122.937 46.75 123.405 46.282C123.873 45.814 124.107 45.22 124.107 44.5C124.107 43.78 123.873 43.186 123.405 42.718C122.937 42.25 122.355 42.016 121.659 42.016C120.963 42.016 120.381 42.25 119.913 42.718C119.457 43.186 119.229 43.78 119.229 44.5C119.229 45.22 119.457 45.814 119.913 46.282Z" fill="#FF1B28"/>
</svg>